<svg width="300" height="300" viewBox="0 0 300 300" fill="none" xmlns="http://www.w3.org/2000/svg">
<path d="M203.513 152.226C201.932 151.018 201.005 149.18 201.005 147.194C201.005 147.171 201.005 147.147 201.005 147.124C201.005 119.996 177.984 98 149.597 98C121.21 98 98.1882 119.996 98.1882 147.124C98.1882 147.147 98.1882 147.171 98.1882 147.194C98.1882 149.18 97.2614 151.026 95.6805 152.226C89.8083 156.72 86 163.792 86 171.713C86 188.638 99.8471 202.487 116.77 202.487H182.431C199.354 202.487 213.201 188.638 213.201 171.713C213.201 163.792 209.393 156.72 203.521 152.226H203.513Z" fill="white"/>
</svg>
