<svg width="300" height="300" viewBox="0 0 300 300" fill="none" xmlns="http://www.w3.org/2000/svg">
<path fill-rule="evenodd" clip-rule="evenodd" d="M163.312 105.029C163.312 114.231 157.107 121.983 148.654 124.33L136.009 160.159C134.741 163.753 137.407 167.522 141.218 167.522H153.623C153.623 167.514 153.623 167.507 153.623 167.5C153.623 151.208 167.054 138 183.623 138C200.192 138 213.623 151.208 213.623 167.5C213.623 168.937 213.518 170.35 213.317 171.732V201.062C213.317 208.689 207.133 214.873 199.506 214.873H112.58C78.688 214.873 85.2604 174.272 94.1515 161.913L124.357 111.605C123.642 109.545 123.253 107.333 123.253 105.029C123.253 93.9675 132.22 85 143.282 85C154.344 85 163.312 93.9675 163.312 105.029Z" fill="white"/>
</svg>
