<svg width="300" height="300" viewBox="0 0 300 300" fill="none" xmlns="http://www.w3.org/2000/svg">
<path d="M198.072 163.477C192.315 184.326 173.21 199.637 150.529 199.637C127.835 199.637 108.721 184.308 102.975 163.44L84.7521 170.786C82.1189 171.848 79.6211 168.997 81.0197 166.526L84.3939 160.565C85.0491 159.407 84.8639 157.957 83.9389 157.001L78.8442 151.736C77.7053 150.56 77.7207 148.687 78.8787 147.529L83.8717 142.536C84.8315 141.576 85.0273 140.091 84.3489 138.915L80.7561 132.688C79.375 130.294 81.6914 127.464 84.311 128.345L103.682 134.86C110.168 115.194 128.691 101 150.529 101C172.356 101 190.871 115.179 197.366 134.829L216.646 128.345C219.266 127.464 221.582 130.294 220.201 132.688L216.608 138.915C215.93 140.091 216.126 141.576 217.085 142.536L222.078 147.529C223.236 148.687 223.252 150.56 222.113 151.736L217.018 157.001C216.093 157.957 215.908 159.407 216.563 160.565L219.937 166.526C221.336 168.997 218.838 171.848 216.205 170.786L198.072 163.477Z" fill="white"/>
</svg>
