<svg width="300" height="300" viewBox="0 0 300 300" fill="none" xmlns="http://www.w3.org/2000/svg">
<path d="M155.377 86.1918C152.216 84.5154 148.561 84.653 145.565 86.3186C135.932 91.6357 117.897 96.7005 106.263 97.402L106.25 97.4028L106.236 97.4037C100.896 97.754 96.4579 102.141 96.395 107.801C96.349 110.61 96.2888 113.389 96.2293 116.135C95.807 135.619 95.4201 153.472 100.408 168.905C106.33 187.226 119.544 201.711 146.405 213.249C149.011 214.382 151.994 214.382 154.6 213.249C181.502 201.683 194.71 187.169 200.616 168.82C205.572 153.426 205.191 135.626 204.775 116.211C204.715 113.384 204.654 110.522 204.608 107.629L204.608 107.622L204.608 107.615C204.507 102.19 200.339 97.5578 194.805 97.2419C189.109 96.9146 182.195 95.983 174.611 93.7937L171.877 93.0043C165.451 90.9741 159.745 88.5008 155.377 86.1918Z" fill="white"/>
</svg>
